<svg width="16" height="16" viewBox="0 0 16 16" fill="none" xmlns="http://www.w3.org/2000/svg">
<path d="M1.95956 12.6263C1.56904 13.0168 1.56904 13.65 1.95957 14.0405C2.35009 14.431 2.98325 14.431 3.37378 14.0405L8.00001 9.4143L12.6262 14.0405C13.0168 14.431 13.6499 14.431 14.0404 14.0405C14.431 13.65 14.431 13.0168 14.0404 12.6263L9.41422 8.00008L14.0404 3.37386C14.431 2.98333 14.431 2.35017 14.0404 1.95964C13.6499 1.56912 13.0168 1.56912 12.6262 1.95964L8.00001 6.58587L3.37378 1.95964C2.98325 1.56912 2.35009 1.56912 1.95957 1.95964C1.56904 2.35017 1.56904 2.98333 1.95957 3.37386L6.58579 8.00008L1.95956 12.6263Z" fill="white"/>
</svg>
