<svg width="56" height="48" viewBox="0 0 56 48" fill="none" xmlns="http://www.w3.org/2000/svg">
<path d="M34 19.25H33.75V18C33.75 15.932 32.068 14.25 30 14.25H22C19.932 14.25 18.25 15.932 18.25 18V28C18.25 28.305 18.435 28.579 18.716 28.694C18.808 28.732 18.904 28.75 19 28.75C19.198 28.75 19.392 28.672 19.536 28.525L21.275 26.75H22.25V28C22.25 30.068 23.932 31.75 26 31.75H34.725L36.464 33.525C36.608 33.672 36.802 33.75 37 33.75C37.096 33.75 37.192 33.732 37.284 33.694C37.566 33.579 37.75 33.304 37.75 33V23C37.75 20.932 36.068 19.25 34 19.25ZM20.96 25.25C20.758 25.25 20.565 25.331 20.424 25.475L19.75 26.163V18C19.75 16.759 20.759 15.75 22 15.75H30C31.241 15.75 32.25 16.759 32.25 18V23C32.25 24.241 31.241 25.25 30 25.25H20.96ZM36.25 31.163L35.576 30.475C35.435 30.331 35.242 30.25 35.04 30.25H26C24.759 30.25 23.75 29.241 23.75 28V26.75H30C32.068 26.75 33.75 25.068 33.75 23V20.75H34C35.241 20.75 36.25 21.759 36.25 23V31.163Z" fill="#C2C8DA"/>
</svg>
