<svg width="24" height="24" viewBox="0 0 24 24" fill="none" xmlns="http://www.w3.org/2000/svg">
<path d="M16.5 6.75862C15.0174 5.65407 13.3677 5 11.5 5C7.5 5 4.5 8 2 12C3.33267 14.1323 4.80743 15.9804 6.5 17.2414" stroke="#C8D1DD" stroke-width="1.4" stroke-linecap="round" stroke-linejoin="round"/>
<path d="M9.5 19.0001C15 19.5001 19 16.0001 21.5 12.0001C20.1673 9.86782 19 9.0001 19 9.0001" stroke="#C8D1DD" stroke-width="1.4" stroke-linecap="round" stroke-linejoin="round"/>
<path d="M9.87871 14.1213C9.60014 13.8427 9.37916 13.512 9.2284 13.1481C9.07763 12.7841 9.00004 12.394 9.00004 12C9.00004 11.606 9.07763 11.2159 9.2284 10.8519C9.37916 10.488 9.60014 10.1573 9.87871 9.87868C10.1573 9.6001 10.488 9.37913 10.852 9.22836C11.216 9.0776 11.6061 9 12 9C12.394 9 12.7841 9.0776 13.1481 9.22836C13.5121 9.37913 13.8428 9.6001 14.1214 9.87868L12 12L9.87871 14.1213Z" stroke="#C8D1DD" stroke-width="1.4"/>
<line x1="19" y1="4.98995" x2="4.98995" y2="19" stroke="#C8D1DD" stroke-width="1.4" stroke-linecap="round"/>
<path d="M15.3633 12.6367C15.3633 12.6367 15.4266 13.5734 14.5532 14.4468C13.6799 15.3201 12.7432 15.2568 12.7432 15.2568" stroke="#C8D1DD" stroke-width="1.4" stroke-linecap="round"/>
</svg>
