<svg width="14" height="21" viewBox="0 0 14 21" fill="none" xmlns="http://www.w3.org/2000/svg">
<path d="M7.7 17V16.3H6.3V17H7.7ZM6.3 20C6.3 20.3866 6.6134 20.7 7 20.7C7.3866 20.7 7.7 20.3866 7.7 20H6.3ZM6.3 17V20H7.7V17H6.3Z" fill="#6656E3"/>
<path d="M0.658609 12.2C1.28601 11.8896 1.6274 12.6895 1.6274 12.6895L1.6376 12.7089C1.64762 12.7276 1.66429 12.7579 1.68777 12.7983C1.7348 12.8791 1.80884 12.9994 1.91127 13.1462C2.11669 13.4405 2.43269 13.8358 2.86921 14.231C3.73688 15.0166 5.07604 15.8 7 15.8C8.92396 15.8 10.2631 15.0166 11.1308 14.231C11.5673 13.8358 11.8833 13.4405 12.0887 13.1462C12.1912 12.9994 12.2652 12.8791 12.3122 12.7983C12.3357 12.7579 12.3524 12.7276 12.3624 12.7089L12.3724 12.6898C12.5441 12.3437 12.9641 12.2012 13.3104 12.3726C13.6569 12.544 13.7988 12.9639 13.6274 13.3104L13.6267 13.3118L13.6259 13.3134L13.6237 13.3178L13.6174 13.3302C13.6122 13.3402 13.6053 13.3534 13.5966 13.3697C13.5792 13.4022 13.5545 13.4471 13.5223 13.5024C13.4579 13.613 13.3633 13.7661 13.2367 13.9475C12.9841 14.3095 12.6004 14.7891 12.0704 15.2689C11.0052 16.2333 9.34432 17.2 7 17.2C4.65568 17.2 2.99484 16.2333 1.92959 15.2689C1.39963 14.7891 1.01594 14.3095 0.76328 13.9475C0.636663 13.7661 0.542074 13.613 0.47772 13.5024C0.445519 13.4471 0.420812 13.4022 0.403381 13.3697C0.394663 13.3534 0.387757 13.3402 0.382637 13.3302L0.37629 13.3178L0.374113 13.3134L0.373272 13.3118C0.373272 13.3118 0.373053 13.3112 0.372636 13.3102C0.356578 13.2715 0.047084 12.5026 0.658609 12.2Z" fill="#6656E3"/>
<rect x="3" y="1" width="8" height="12" rx="4" stroke="#6656E3" stroke-width="1.4"/>
</svg>
