<svg width="56" height="48" viewBox="0 0 56 48" fill="none" xmlns="http://www.w3.org/2000/svg">
<path d="M20.4034 29.3222C20.44 28.9879 20.4583 28.8208 20.4813 28.7015C20.7598 27.2543 21.9304 26.2799 23.4042 26.2686C23.5257 26.2677 23.7153 26.2816 24.0945 26.3095C25.2723 26.3959 26.599 26.4667 27.7854 26.4667C29.0237 26.4667 30.3969 26.3896 31.5907 26.298C31.9564 26.27 32.1392 26.256 32.2582 26.2563C33.6545 26.2601 34.7825 27.1264 35.1463 28.4745C35.1773 28.5893 35.2069 28.748 35.2661 29.0653V29.0653C35.3314 29.4153 35.364 29.5902 35.3768 29.7324C35.524 31.3759 34.3162 32.8298 32.6735 32.9865C32.5314 33 32.3535 33 31.9975 33L27.7854 33H23.6999C23.376 33 23.2141 33 23.0816 32.9882C21.51 32.8487 20.315 31.5155 20.3476 29.938C20.3504 29.8051 20.368 29.6441 20.4034 29.3222V29.3222Z" stroke="#C2C8DA" stroke-width="1.4"/>
<path d="M24 19C24 16.7909 25.7909 15 28 15V15C30.2092 15 32 16.7909 32 19V19.5714C32 21.465 30.465 23 28.5714 23V23H27.4286V23C25.535 23 24 21.465 24 19.5714V19Z" stroke="#C2C8DA" stroke-width="1.4"/>
</svg>
